<svg width="173" height="45" viewBox="0 0 173 45" fill="none" xmlns="http://www.w3.org/2000/svg">
<path d="M40.773 44.0102H29.8519C28.8046 44.0102 28.1263 43.133 28.3669 42.0875C32.1218 25.7908 33.4657 18.1615 35.4499 1.9227C35.5765 0.877246 36.5641 8.25321e-06 37.6096 8.25321e-06H48.5325C49.5762 8.25321e-06 50.2563 0.873629 50.0193 1.91727C46.3295 18.1615 44.9838 25.7926 42.9363 42.093C42.8061 43.1366 41.8185 44.0102 40.773 44.0102Z" fill="white"/>
<path d="M55.6938 44.0102C52.2391 44.0102 45.7476 42.6663 47.3935 33.3278C48.0664 29.5096 50.5859 20.9054 51.4397 11.8237C51.5391 10.762 52.5394 9.8522 53.6047 9.8522H64.2437C65.3434 9.8522 66.0271 10.8163 65.6943 11.9069C62.7913 21.4372 58.8555 32.4958 63.1476 32.4958C64.4915 32.4958 66.2098 32.1757 68.1162 21.3648C68.1162 21.3648 68.4888 19.2504 68.9898 11.878C69.064 10.7982 70.0769 9.85039 71.1621 9.85039H81.9838C83.0456 9.85039 83.7274 10.753 83.4598 11.8111C80.7557 22.526 79.202 31.3328 78.1276 42.0477C78.0209 43.1059 77.0225 44.0084 75.9607 44.0084H65.6889C64.3161 44.0084 63.6722 42.5452 64.5313 41.3351C65.6075 39.8212 66.7434 37.8515 67.5501 35.5978C67.664 35.2813 67.4633 34.99 67.1431 34.99C66.9026 34.99 66.6692 35.1546 66.5679 35.388C65.1571 38.6437 61.5198 44.0102 55.6884 44.0102H55.6938Z" fill="white"/>
<path d="M97.1933 44.0102C87.853 44.0102 83.5211 38.8408 84.988 30.517L86.9197 19.5633C86.9884 19.1708 86.7225 18.8525 86.3228 18.8525H86.1202C85.1109 18.8525 84.4363 18.0458 84.6117 17.0492L84.6298 16.9515L84.6678 16.7308L84.7257 16.4053C84.751 16.266 84.7745 16.1285 84.7998 15.9892L84.8867 15.4991C84.9192 15.3164 84.9518 15.1355 84.9825 14.9528C85.0169 14.7575 85.0513 14.5603 85.0856 14.365C85.12 14.1697 85.158 13.9562 85.1942 13.7518C85.2303 13.5474 85.2665 13.3376 85.3045 13.1314C85.3425 12.9252 85.3768 12.7227 85.413 12.5183C85.5215 11.8997 85.5595 11.1563 86.0207 10.6119C86.1383 10.4726 86.2812 10.3623 86.4169 10.2429C86.5543 10.1217 86.7026 10.0132 86.86 9.92093C87.0517 9.80698 87.2543 9.71473 87.4623 9.64962C87.6703 9.5845 88.26 9.523 88.468 9.47236C88.9057 9.36564 89.3362 9.18296 89.7359 8.94421C90.5118 8.47936 91.1196 7.79204 91.5808 7.03961C92.5865 5.39546 92.6462 3.56502 93.1291 1.80512C93.4094 0.781371 94.4223 0.00180516 95.466 0.00180516H102.451C103.611 0.00180516 104.365 0.958628 104.108 2.09994C103.741 3.73504 103.448 5.00839 103.151 6.3342C102.741 8.17188 103.958 9.71111 105.826 9.71111H106.912C108.031 9.71111 108.782 10.6064 108.588 11.7116L107.682 16.8538C107.487 17.959 106.422 18.8543 105.3 18.8543H101.911C101.484 18.8543 100.977 18.6933 100.628 19.1202C100.303 19.5163 100.064 21.2979 99.9969 21.6289C99.1721 25.2229 97.6473 33.8614 101.806 33.8614C102.162 33.8614 102.677 33.8071 103.314 33.5738C104.618 33.0945 105.834 33.8759 105.769 35.1601L105.49 40.6876C105.447 41.5431 104.839 42.3697 103.985 42.7459C101.598 43.7968 99.1142 44.0138 97.2005 44.0138L97.1933 44.0102Z" fill="white"/>
<path d="M122.363 44.0102C112.745 44.0102 107.257 38.7685 109.344 26.9303C111.431 15.0921 118.768 9.85039 128.387 9.85039C132.702 9.85039 135.52 10.9953 137.405 12.6232C138.284 13.3829 138.566 14.6436 138.188 15.8988L136.329 22.0956C135.949 23.3617 134.422 24.0436 133.444 23.3834C131.921 22.3578 130.174 21.6253 128.466 21.6253C125.815 21.6253 124.017 23.7831 123.461 26.9285C122.884 30.1969 124.017 32.1702 126.73 32.1702C128.32 32.1702 130.318 31.4612 132.212 30.4465C133.418 29.8008 134.692 30.4827 134.627 31.7416L134.307 37.9039C134.241 39.1556 133.52 40.4108 132.382 41.1723C129.919 42.8219 126.686 44.0084 122.362 44.0084L122.363 44.0102Z" fill="white"/>
<path d="M14.2267 44.0102C4.60785 44.0102 -0.879862 38.7685 1.20742 26.9303C3.29471 15.0921 10.6309 9.85039 20.2498 9.85039C24.5655 9.85039 27.3835 10.9953 29.2682 12.6232C30.1472 13.3829 30.4294 14.6436 30.0514 15.8988L28.192 22.0956C27.8122 23.3617 26.2856 24.0436 25.307 23.3834C23.7841 22.3578 22.0369 21.6253 20.3294 21.6253C17.6778 21.6253 15.8799 23.7831 15.3246 26.9285C14.7476 30.1969 15.8799 32.1702 18.593 32.1702C20.1829 32.1702 22.1815 31.4612 24.0753 30.4465C25.2817 29.8008 26.5551 30.4827 26.49 31.7416L26.1698 37.9039C26.1047 39.1556 25.383 40.4108 24.2453 41.1723C21.7818 42.8219 18.5496 44.0084 14.2249 44.0084L14.2267 44.0102Z" fill="white"/>
<path d="M166.431 44.0102H155.812C154.707 44.0102 154.027 43.0407 154.363 41.9464C157.302 32.418 161.133 21.3666 156.961 21.3666C155.682 21.3666 153.958 22.0702 152.131 32.4325C152.131 32.4325 151.759 34.5505 151.247 41.9844C151.173 43.0642 150.16 44.012 149.075 44.012H138.242C137.184 44.012 136.502 43.1185 136.764 42.0622C140.076 28.6848 142.409 15.3725 143.491 2.03844C143.578 0.967671 144.583 0.0452149 145.66 0.0452149H156.409C157.503 0.0452149 158.182 0.99842 157.861 2.08547C156.101 8.06335 155.123 11.1599 152.696 18.2031C152.587 18.5197 152.777 18.8073 153.099 18.8073C153.34 18.8073 153.573 18.6427 153.674 18.4093C155.089 15.159 158.894 9.85038 164.847 9.85038C167.853 9.85038 174.417 10.8741 172.726 20.4695C172.042 24.3474 169.412 32.9516 168.594 42.0315C168.499 43.0968 167.497 44.0102 166.429 44.0102H166.431Z" fill="white"/>
</svg>
